<svg width="114" height="114" viewBox="0 0 114 114" fill="none" xmlns="http://www.w3.org/2000/svg">
<path fill-rule="evenodd" clip-rule="evenodd" d="M63.2652 31.2C66.1652 29.7 72.2652 30.3 71.4652 35.4C72.6652 34.9 75.2652 33.6 76.9652 35C78.6652 36.4 77.4652 39.8 78.4652 42.6C79.7652 46.3 85.4652 47.8 82.4652 52.7C84.6652 54.9 87.7652 56.2 88.1652 59.4C88.7652 63.7 82.5652 65.2 82.8652 69.9C82.9652 71.4 84.4652 72.5 83.8652 74.3C83.1652 75.2 82.3652 75.9 81.1652 76.2C78.4652 78.8 75.1652 85.3 69.9652 81.7C69.6652 86.7 67.1652 89.5 62.9652 89.1C60.4652 88.9 59.5652 86.2 57.6652 85.9C55.5652 85.6 54.5652 87.7 52.3652 87C51.3652 86.3 50.6652 85.3 50.6652 83.6C48.5652 84.9 47.0652 88.1 42.4652 87.6C41.4652 87.5 40.0652 87.1 39.2652 86.3C38.1652 85.3 37.7652 83 36.5652 82.5C34.5652 81.6 32.0652 82.7 30.6652 81.4C28.5652 79.4 28.0652 74.8 29.5652 72.4C30.5652 70.8 29.9652 71.6 28.9652 69.5C28.5652 68.6 28.4652 67.5 28.1652 66.8C27.3652 65.2 26.0652 64.6 25.8652 62.8C25.6652 60.6 26.7652 58.9 28.8652 57.7C28.2652 51.5 30.4652 48.1 33.8652 45.9C33.3652 40.4 33.5652 32.4 38.6652 32.6C40.5652 32.6 40.7652 34.1 42.4652 34.7C44.8652 33.6 49.2652 32.7 51.7652 34.3C53.1652 31.9 56.3652 25.5 60.5652 25C64.2652 24.4 63.9652 27.9 63.2652 31.2ZM57.7652 27.2C51.7652 31.9 47.1652 44.7 53.1652 51.8C53.4652 50.8 54.5652 51.6 55.4652 51.4C56.2652 51.2 56.4652 50.6 57.3652 50.6C58.3652 50.6 58.9652 50.9 59.6652 51.6C62.0652 49.2 64.2652 46.5 64.2652 42.5C64.2652 38.6 62.1652 34.4 62.5652 29.9C62.6652 28.6 63.2652 27.5 62.5652 26.1C60.9652 25.3 59.0652 26.2 57.7652 27.2ZM70.5652 35.9C72.1652 31.7 66.6652 30 63.3652 32.1C63.5652 36 64.7652 38.8 65.2652 42.4C65.5652 39.6 69.6652 38.3 70.5652 35.9ZM41.7652 35.4C40.2652 35.1 39.9652 33.7 38.8652 33.5C34.4652 32.8 33.9652 40.6 34.2652 44C34.5652 47.1 37.5652 52.5 39.7652 53.1C40.8652 53.4 42.0652 53 42.9652 53.1C45.1652 53.3 46.7652 54.3 49.0652 54.4C49.4652 54.1 49.0652 52.9 49.4652 52.5C50.0652 51.8 51.1652 51.7 52.1652 51.4C48.6652 47.8 48.6652 39 51.3652 34.6C47.7652 32.9 44.1652 35.8 41.7652 35.4ZM82.3652 49.1C81.9652 46.7 78.8652 46 77.7652 43C76.6652 39.8 78.5652 35.1 74.8652 35.2C74.2652 37.2 73.6652 39.3 73.8652 41.1C74.1652 43 75.9652 43.5 76.3652 45.5C76.7652 47.3 75.9652 48.7 76.1652 50.8C76.9652 52.2 78.2652 53.2 79.9652 53.7C81.3652 52.9 82.7652 51.4 82.3652 49.1ZM73.3652 35.4C70.7652 37.1 66.2652 40.1 64.9652 43.4C64.2652 45.3 64.3652 47 63.2652 48.9C62.6652 49.9 59.9652 51.8 60.2652 52.7C60.6652 54.2 62.7652 53.5 64.8652 53.7C68.5652 53.9 75.9652 56.5 79.3652 53.9C77.9652 53.6 76.1652 52.6 75.7652 51C75.3652 49.2 76.3652 47.5 75.9652 45.7C75.6652 44.3 73.7652 43.2 73.4652 41.5C73.0652 39.1 73.8652 37.8 74.0652 35.4C73.9652 35.4 73.7652 35.4 73.6652 35.4C73.5652 35.4 73.4652 35.4 73.3652 35.4ZM33.7652 46.8C32.9652 47.7 31.3652 48.8 30.7652 49.8C26.3652 57 32.6652 67.9 39.3652 66.9C38.7652 62.4 32.8652 62.7 32.3652 58.7C31.7652 54.9 35.8652 51.4 34.2652 46.7C34.0652 46.8 33.8652 46.8 33.7652 46.8ZM32.9652 59C33.4652 61.3 36.6652 61.8 38.0652 63.4C39.0652 64.5 39.0652 65.6 39.9652 66.8C42.9652 64.9 46.5652 63.7 49.2652 61.7C48.3652 61.4 48.5652 59.2 49.0652 58.7C48.3652 58.8 47.6652 59 47.3652 58.3C46.8652 57.3 47.3652 55.8 47.9652 55.3C45.4652 53.7 42.2652 54.8 39.3652 54C37.1652 53.4 36.5652 50.6 34.9652 49.4C35.6652 53.6 32.2652 55.6 32.9652 59ZM56.0652 51.6C56.0652 52.4 56.7652 52.5 56.6652 53.5C57.7652 53.8 58.5652 53 59.6652 52.9C59.1652 51.7 57.5652 50.6 56.0652 51.6ZM53.5652 54.2C54.4652 53.9 56.1652 54.3 56.0652 52.9C55.2652 50.9 52.2652 52.2 53.5652 54.2ZM49.9652 54.2C51.2652 54.3 51.5652 56 52.9652 55C52.7652 54.2 52.2652 53.2 52.7652 52.3C51.3652 51.9 49.6652 52.4 49.9652 54.2ZM60.8652 55.6C62.0652 53.9 58.5652 52.9 57.6652 54.5C58.3652 54.7 58.7652 55.3 58.9652 56C59.3652 56 59.8652 56 60.2652 56C59.9652 54.9 60.7652 55.6 60.8652 55.6ZM87.4652 60.1C87.4652 57.3 83.8652 55.3 81.7652 53.6C77.0652 57.7 68.5652 54.4 61.7652 54.6C61.4652 55.8 61.3652 56.4 61.5652 57.8C68.0652 60.6 75.5652 63.3 80.4652 67.5C81.2652 68.2 81.9652 69.2 82.3652 69C81.4652 64.6 87.4652 63.6 87.4652 60.1ZM52.9652 56C51.7652 55.9 50.8652 56.2 51.0652 57.5C51.5652 58.2 52.4652 57.4 52.9652 57.9C52.6652 58.8 52.6652 60.1 53.7652 60.2C54.7652 60.2 54.5652 59.1 54.8652 58.5C55.3652 59 56.2652 59 56.7652 58.5C57.0652 57.3 56.1652 57.3 56.1652 56.4C57.0652 56.4 57.8652 56.5 57.8652 55.6C56.7652 55.5 56.7652 55 56.7652 54.3C55.3652 54.7 53.5652 54.6 52.9652 56ZM48.6652 58C49.0652 57.6 49.7652 57.4 50.3652 57.2C50.1652 56 50.9652 55.9 51.3652 55.3C49.6652 54.1 46.9652 56.7 48.6652 58ZM57.3652 57.1C57.4652 58 58.2652 58.3 58.3652 59.2C60.1652 59.4 61.0652 58.6 60.8652 56.7C59.8652 56.7 58.1652 56.4 57.3652 57.1ZM49.5652 60.7C50.4652 61.9 51.9652 60.9 52.4652 59.9C52.2652 58.8 51.6652 58.2 50.5652 58C50.2652 59 49.3652 59.3 49.5652 60.7ZM26.5652 62C26.5652 64.2 28.0652 64.9 28.8652 66.8C29.5652 68.3 29.7652 69.8 30.5652 70.6C32.4652 69.6 34.8652 69.1 36.2652 67.6C32.5652 65.8 29.9652 62.8 28.8652 58.5C27.5652 59.4 26.5652 60.5 26.5652 62ZM61.1652 58.6C60.9652 59.6 59.8652 59.8 58.4652 59.7C57.4652 63.8 61.1652 67.5 63.5652 70C66.1652 72.7 68.1652 75 69.4652 78C69.4652 74.9 72.4652 75.6 74.5652 75.1C77.5652 74.5 77.3652 69.9 80.0652 68.4C75.1652 64 67.7652 61.7 61.1652 58.6ZM55.6652 61.5C56.9652 62 58.2652 60.6 57.5652 59.2C56.9652 58.8 56.3652 59.9 55.2652 59.6C54.9652 60.4 55.3652 60.8 55.6652 61.5ZM51.4652 61.9C51.7652 63.7 54.5652 63.5 55.0652 62.1C55.0652 61.5 54.4652 61.5 54.4652 60.8C52.9652 60.6 52.7652 61.4 51.4652 61.9ZM50.1652 62C50.0652 62 50.0652 62.6 49.9652 62.6C46.0652 64 42.3652 67.9 37.1652 67.7C35.6652 70.3 31.4652 70.1 30.1652 72.8C33.7652 73.3 33.4652 77.4 36.2652 78.9C38.9652 80.3 42.2652 79.6 44.4652 81.8C45.3652 82.7 45.8652 84 46.3652 85.6C48.1652 84.8 49.1652 83.2 50.1652 81.6C49.6652 79.2 49.4652 76.8 49.5652 74.6C49.8652 69.8 52.7652 67.7 53.7652 63.9C51.5652 64.8 51.4652 61.9 50.1652 62ZM51.0652 70.8C50.6652 71.8 50.3652 73.4 50.2652 74.8C50.0652 78 50.7652 85.7 52.7652 86.2C54.7652 86.7 56.1652 84.8 57.7652 85.1C60.1652 85.4 60.3652 87.8 62.3652 88.1C67.4652 89.1 69.5652 83.8 69.0652 80.1C68.0652 72.9 58.8652 69.1 57.4652 62.2C57.4652 62.1 57.4652 62 57.2652 62C55.7652 62 55.4652 63.3 54.3652 63.7C54.7652 66.9 52.0652 68.2 51.0652 70.8ZM73.3652 82.1C76.1652 81.8 78.3652 77.4 80.7652 75.6C81.8652 74.8 82.8652 74.4 83.0652 73.7C83.6652 71.2 81.0652 68.6 79.4652 69.9C78.3652 70.8 78.6652 72.6 77.9652 73.7C76.8652 75.6 74.9652 76.2 71.8652 76C68.9652 77.6 69.1652 82.4 73.3652 82.1ZM32.0652 81.1C33.4652 81.7 35.2652 81 36.8652 81.7C38.1652 82.2 38.5652 84.6 39.8652 85.7C41.4652 87.1 43.5652 86.8 45.5652 86.3C44.8652 83.6 43.8652 81.9 41.5652 81C40.0652 80.4 38.1652 80.6 36.5652 80C33.1652 78.8 33.3652 74.7 30.1652 73.5C30.1652 73.4 29.9652 73.3 29.7652 73.3C29.1652 76.4 29.4652 79.9 32.0652 81.1Z" fill="#F9F5F2"/>
<path d="M5.26523 36.4C6.26523 36.8 6.96523 36.1 7.66523 35.6C8.76523 34.7 9.76523 33.6 11.1652 34.2C12.4652 34.8 12.5652 36.2 11.9652 37.5C11.4652 38.6 10.9652 39.1 10.6652 39.5L9.46523 39.3V39.2C10.8652 38.9 11.4652 38.4 11.9652 37.2C12.3652 36.4 12.1652 35.4 11.1652 34.9C9.96523 34.4 9.26523 35.3 8.26523 36.1C7.46523 36.8 6.46523 37.6 5.36523 37.1C4.06523 36.5 4.26523 35.1 4.66523 34.2C4.86523 33.6 5.36523 33 5.76523 32.4L6.96523 32.6V32.7C5.76523 33 5.16523 33.3 4.66523 34.5C4.36523 35.1 4.36523 36 5.26523 36.4Z" fill="#F9F5F2"/>
<path d="M8.46521 29.1C8.26521 29 8.16521 28.6 8.26521 28.4C8.36521 28.2 8.76521 28.1 8.96521 28.2C9.16521 28.3 9.26521 28.7 9.16521 28.9C8.96521 29.2 8.66521 29.3 8.46521 29.1ZM14.8652 31.4L14.1652 32.7L14.0652 32.6L13.9652 32.2L10.0652 29.9L9.66521 30.1L9.56521 30L9.76521 28.9V28.8L14.3652 31.5L14.8652 31.4Z" fill="#F9F5F2"/>
<path d="M17.5652 27.4L17.6652 27.5C17.2652 28.2 16.4652 28.9 15.3652 28.1L12.0652 25.7L11.6652 26.2L11.5652 26.1V24.5L11.6652 24.4L12.4652 24.9L12.9652 24.2L13.0652 24.3L12.5652 25L15.9652 27.5C16.4652 27.8 17.0652 28 17.5652 27.4Z" fill="#F9F5F2"/>
<path d="M14.0652 21C13.8652 20.8 13.8652 20.5 13.9652 20.3C14.1652 20.1 14.4652 20.1 14.6652 20.3C14.8652 20.5 14.8652 20.8 14.7652 21C14.5652 21.2 14.2652 21.2 14.0652 21ZM20.0652 24.4L19.1652 25.6L19.0652 25.5V25L15.6652 22.1L15.1652 22.2L15.5652 21.1L15.6652 21L19.6652 24.4H20.0652Z" fill="#F9F5F2"/>
<path d="M31.6652 14.5L30.2652 15.6H30.1652L30.3652 15.1L27.9652 13.5L25.6652 15.1L26.2652 17.7H26.9652L27.0652 17.8L25.8652 18.6L25.7652 18.5L26.1652 17.7L24.5652 11.1L23.8652 10.6L24.5652 10.1L30.9652 14.4L31.6652 14.5ZM27.8652 13.4L24.7652 11.3L25.6652 15L27.8652 13.4Z" fill="#F9F5F2"/>
<path d="M32.4652 9.10002C33.1652 10 36.4652 8.90002 37.1652 10.3C37.6652 11.2 36.6652 12.3 35.6652 12.7C34.9652 13 34.0652 13.2 33.1652 13.1L33.0652 12.2C33.9652 12.7 35.0652 12.8 35.7652 12.4C36.4652 12.1 37.0652 11.5 36.6652 10.8C36.0652 9.60002 32.7652 10.9 31.9652 9.50002C31.5652 8.70002 32.1652 7.80002 32.9652 7.40002C33.3652 7.20002 34.1652 6.90002 35.1652 6.90002L35.2652 7.80002C34.4652 7.40002 33.6652 7.20002 32.8652 7.60002C32.4652 8.00002 32.0652 8.60002 32.4652 9.10002Z" fill="#F9F5F2"/>
<path d="M42.1652 9.99998V10.1C41.4652 10.4 40.3652 10.5 39.9652 9.19998L38.6652 5.29998L38.0652 5.49998V5.39998L39.0652 4.09998H39.1652L39.4652 4.99998L40.1652 4.69998V4.79998L39.2652 5.09998L40.6652 9.09998C40.9652 9.69998 41.3652 10.2 42.1652 9.99998Z" fill="#F9F5F2"/>
<path d="M49.0652 8.20001L47.9652 8.50001L47.5652 6.50001C47.4652 7.50001 47.1652 8.90001 45.7652 9.20001C45.0652 9.40001 44.0652 9.10001 43.8652 8.10001C43.6652 6.30001 46.7652 4.70001 47.0652 4.40001C47.0652 4.40001 46.8652 3.10001 45.7652 3.40001C45.1652 3.50001 44.4652 4.10001 43.8652 5.00001L43.4652 4.30001C44.0652 3.70001 45.1652 3.30001 45.6652 3.20001C46.1652 3.10001 47.5652 2.90001 47.9652 4.80001L48.6652 8.00001L49.0652 8.20001ZM47.0652 4.50001C46.1652 5.20001 44.3652 6.40001 44.6652 7.80001C44.7652 8.40001 45.3652 8.90001 46.0652 8.70001C47.1652 8.50001 47.4652 6.70001 47.3652 5.70001L47.0652 4.50001Z" fill="#F9F5F2"/>
<path d="M55.2652 2.19998L55.1652 3.09998C54.6652 2.59998 54.1652 2.49998 53.7652 2.49998C52.9652 2.59998 52.5652 3.39998 52.4652 3.99998L52.6652 7.49998L53.0652 7.79998V7.89998L51.5652 7.99998V7.89998L51.8652 7.59998L51.5652 3.09998L51.1652 2.89998V2.79998L52.1652 2.29998H52.2652L52.3652 3.09998C52.9652 2.49998 53.5652 2.19998 54.3652 2.09998C54.6652 2.09998 54.9652 2.09998 55.2652 2.19998Z" fill="#F9F5F2"/>
<path d="M59.5652 7.7H58.0652V7.6L58.4652 7.3L58.6652 2.8L58.1652 2.6V2.5L59.2652 2.1H59.3652L59.1652 7.4L59.5652 7.7ZM58.4652 1C58.4652 0.7 58.6652 0.5 58.9652 0.5C59.2652 0.5 59.4652 0.7 59.4652 1C59.4652 1.3 59.1652 1.5 58.9652 1.5C58.6652 1.5 58.4652 1.3 58.4652 1Z" fill="#F9F5F2"/>
<path d="M77.1652 4.00002L75.1652 10.6L75.3652 11V11.1L73.8652 10.7V10.6L74.2652 10.4L76.3652 3.80002L71.5652 10L71.2652 9.90002L70.5652 2.40002L68.6652 8.50002L69.1652 9.10002V9.20002L67.6652 8.80002V8.70002L68.5652 8.50002L70.5652 2.10002L70.0652 1.50002V1.40002L71.2652 1.80002L71.9652 9.10002L76.4652 3.40002L77.5652 3.70002V3.80002L77.1652 4.00002Z" fill="#F9F5F2"/>
<path d="M82.0652 14.4L80.9652 13.9L81.9652 12.1C81.2652 12.8 80.1652 13.6 78.8652 13C78.1652 12.7 77.6652 11.8 78.1652 10.9C79.1652 9.40002 82.5652 10.1 82.9652 10.1C82.9652 10.1 83.6652 9.00002 82.6652 8.50002C82.0652 8.20002 81.1652 8.20002 80.1652 8.60002L80.2652 7.80002C81.1652 7.70002 82.1652 8.10002 82.6652 8.40002C83.1652 8.60002 84.3652 9.40002 83.4652 11.1L81.9652 14L82.0652 14.4ZM82.9652 10.3C81.8652 10.3 79.6652 10 78.9652 11.3C78.6652 11.8 78.7652 12.5 79.4652 12.9C80.4652 13.4 81.8652 12.3 82.3652 11.4L82.9652 10.3Z" fill="#F9F5F2"/>
<path d="M88.6652 19.1L87.6652 18.5L88.0652 17.9C87.2652 18 86.6652 17.9 85.8652 17.4C85.0652 16.8 84.5652 15.7 85.4652 14.6L87.2652 12.1L87.1652 11.7L87.2652 11.6L88.3652 11.9L88.4652 12L86.1652 15.1C85.5652 15.9 85.5652 16.8 86.2652 17.4C86.9652 18 87.8652 17.9 88.2652 17.7L90.5652 14.6L90.4652 14.2L90.5652 14.1L91.6652 14.4L91.7652 14.5L88.5652 18.7L88.6652 19.1Z" fill="#F9F5F2"/>
<path d="M91.7652 21.9L90.5652 20.9L90.6652 20.8H91.1652L95.9652 15.8L95.8652 15.4L95.9652 15.3L97.0652 15.7L97.1652 15.8L91.6652 21.5L91.7652 21.9Z" fill="#F9F5F2"/>
<path d="M94.5652 25L93.4652 23.9L93.5652 23.8L93.9652 23.9L97.3652 20.9V20.5L97.4652 20.4L98.4652 20.9L98.5652 21L94.5652 24.5V25ZM98.6652 19.6C98.8652 19.4 99.1652 19.4 99.3652 19.6C99.5652 19.8 99.5652 20.1 99.2652 20.3C99.0652 20.5 98.7652 20.5 98.5652 20.3C98.4652 20.1 98.4652 19.8 98.6652 19.6Z" fill="#F9F5F2"/>
<path d="M99.4652 31.6L98.7652 30.7L98.9652 30.6C98.4652 30.4 98.0652 30 97.7652 29.6C96.5652 27.9 97.4652 26.2 98.5652 25.5C99.7652 24.7 101.465 24.8 102.565 26.4C102.865 26.8 103.065 27.3 103.165 27.8L104.765 26.7V26.3L104.865 26.2L105.865 26.8L105.965 26.9L99.5652 31.3L99.4652 31.6ZM102.665 28C102.865 27.3 102.665 26.6 102.265 26.1C101.565 25.1 100.065 24.9 98.5652 26.4C97.4652 27.5 97.3652 28.9 98.0652 29.8C98.2652 30.1 98.5652 30.3 99.0652 30.5L102.665 28Z" fill="#F9F5F2"/>
<path d="M102.765 38.4L102.165 37.4L104.065 36.5C103.065 36.7 101.665 36.6 101.065 35.3C100.765 34.6 100.765 33.6 101.765 33.2C103.465 32.6 105.765 35.3 106.065 35.5C106.065 35.5 107.265 35.1 106.765 34C106.465 33.4 105.765 32.9 104.665 32.5L105.165 31.9C105.865 32.3 106.565 33.3 106.765 33.8C106.965 34.3 107.465 35.6 105.765 36.4L102.765 37.8V38.4ZM105.965 35.6C105.065 34.9 103.565 33.3 102.165 34C101.565 34.3 101.265 34.9 101.565 35.5C102.065 36.5 103.865 36.4 104.765 36.1L105.965 35.6Z" fill="#F9F5F2"/>
<path d="M110.965 50.4C110.365 51.9 108.765 52.9 107.665 53.1C106.865 53.2 106.165 52.9 106.065 52.2C105.965 51.7 106.265 51.2 106.765 50.6C106.065 50.2 105.665 49.7 105.565 48.8C105.165 46.1 108.865 44.9 110.665 47.3C111.965 46.6 113.365 46.9 113.665 48.6C113.765 49.3 113.765 49.6 113.665 50.2L112.565 50.7V50.6C113.365 50.1 113.665 49.4 113.565 48.6C113.365 47 111.965 47.5 110.965 48.1C109.165 49.2 106.865 51.3 106.965 52.4C107.065 52.8 107.465 53 108.065 52.9C109.365 52.7 111.065 51.1 110.865 49H110.965V50.4ZM110.365 47.3C109.265 45.7 105.465 47 105.765 49.2C105.865 49.6 106.065 50.1 106.765 50.5C107.565 49.5 109.165 48.1 110.265 47.5L110.365 47.3Z" fill="#F9F5F2"/>
<path d="M109.665 69.3L109.365 68.9L106.165 68.4C105.565 67.6 105.165 66.6 105.365 65.3C105.765 63.1 107.765 61.8 109.965 62.2C112.065 62.6 113.665 64.6 113.265 66.6C113.165 67.3 112.965 67.9 112.665 68.5L111.465 68.6V68.5C112.565 68 113.165 67 113.065 65.9C112.965 64.1 111.165 62.9 109.165 62.9C107.365 62.9 105.365 63.8 105.365 65.9C105.365 66.4 105.465 67 105.865 67.4L109.565 68L109.965 65.5H110.065L109.665 69.3Z" fill="#F9F5F2"/>
<path d="M103.965 72.4L104.365 70.9H104.465L104.665 71.3L108.965 72.6L109.265 72.3H109.365L109.465 73.5V73.6L104.365 72L103.965 72.4ZM110.665 73.1C110.965 73.2 111.065 73.5 110.965 73.7C110.865 74 110.565 74.1 110.365 74C110.065 73.9 109.965 73.6 110.065 73.4C110.165 73.1 110.465 73 110.665 73.1Z" fill="#F9F5F2"/>
<path d="M100.865 79.9L101.365 78.5H101.465L101.565 78.9L104.665 80.3C105.565 80.7 106.465 80.5 106.865 79.6C107.265 78.8 106.965 77.9 106.165 77.4L102.965 75.9L102.565 76.1H102.465L103.065 74.7H103.165L103.265 75.1L107.365 77L107.765 76.8H107.865V78V78.1L107.065 77.8C107.265 78.6 107.265 79.3 106.965 80C106.565 81 105.565 81.6 104.265 81L101.265 79.6L100.865 79.9Z" fill="#F9F5F2"/>
<path d="M96.7652 86.3L97.3652 85.3L99.0652 86.4C98.3652 85.6 97.7652 84.4 98.4652 83.2C98.8652 82.6 99.7652 82.1 100.565 82.7C101.965 83.8 100.865 87.2 100.865 87.6C100.865 87.6 101.865 88.4 102.465 87.4C102.865 86.9 102.865 86 102.665 84.9L103.465 85.1C103.465 86 102.965 87 102.665 87.5C102.365 87.9 101.565 89.1 99.8652 88L97.1652 86.2L96.7652 86.3ZM100.765 87.5C100.965 86.4 101.465 84.3 100.165 83.4C99.6652 83.1 98.9652 83.1 98.5652 83.7C97.9652 84.7 98.9652 86.1 99.6652 86.8L100.765 87.5Z" fill="#F9F5F2"/>
<path d="M91.5652 92.4L92.5652 91.2L92.6652 91.3V91.8L95.1652 94.1C95.8652 94.8 96.8652 94.8 97.4652 94.2C98.0652 93.5 98.0652 92.6 97.4652 91.9L94.8652 89.5L94.3652 89.6L94.1652 89.3L95.1652 88.2L95.2652 88.3V88.8L98.5652 91.8L98.9652 91.7L99.0652 91.8L98.6652 92.9L98.5652 93L97.9652 92.4C97.9652 93.2 97.6652 93.9 97.1652 94.5C96.4652 95.3 95.3652 95.6 94.2652 94.6L91.8652 92.4H91.5652Z" fill="#F9F5F2"/>
<path d="M92.4652 99L88.1652 94.2C87.2652 93.2 87.4652 92.4 88.5652 91.5L89.1652 91L90.1652 91.8L90.0652 91.9L88.7652 91.6L88.6652 91.5C87.8652 92.1 88.0652 92.7 88.6652 93.4L92.4652 97.8H92.8652L92.9652 97.9L92.4652 99ZM93.8652 99.2C94.0652 99.4 94.0652 99.7 93.7652 99.9C93.5652 100.1 93.2652 100.1 93.0652 99.8C92.8652 99.6 92.8652 99.3 93.0652 99.1C93.3652 99 93.6652 99 93.8652 99.2Z" fill="#F9F5F2"/>
<path d="M82.3652 99.4L83.2652 98.7L84.3652 100.4C84.0652 99.4 83.8652 98 85.0652 97.3C85.6652 96.9 86.7652 96.8 87.1652 97.7C88.0652 99.3 85.6652 101.9 85.5652 102.3C85.5652 102.3 86.1652 103.4 87.1652 102.8C87.6652 102.4 88.0652 101.7 88.3652 100.5L88.9652 101C88.6652 101.8 87.7652 102.6 87.3652 102.9C86.9652 103.2 85.6652 103.9 84.6652 102.3L82.7652 99.5L82.3652 99.4ZM85.5652 102.1C86.1652 101.1 87.4652 99.4 86.5652 98.1C86.2652 97.6 85.5652 97.3 84.9652 97.7C83.9652 98.3 84.3652 100.1 84.8652 101L85.5652 102.1Z" fill="#F9F5F2"/>
<path d="M78.7652 107.3L78.6652 106.5C79.3652 106.8 79.8652 106.7 80.1652 106.6C80.8652 106.3 80.9652 105.3 80.7652 104.7L79.2652 101.5L78.8652 101.4V101.3L80.2652 100.6V100.7L80.0652 101.1L81.9652 105.2L82.3652 105.3V105.4L81.5652 106.3H81.4652L81.0652 105.5C80.7652 106.3 80.2652 106.8 79.5652 107.1C79.3652 107.2 79.0652 107.3 78.7652 107.3Z" fill="#F9F5F2"/>
<path d="M62.3652 113.4L61.2652 106.6L60.8652 106.4V106.3L62.3652 106.1V106.2L62.0652 106.5L63.1652 113.3L64.7652 105.6H65.0652L68.9652 112L67.9652 105.7L67.1652 105.4V105.3L68.6652 105.1V105.2L68.0652 105.7L69.0652 112.3L69.6652 112.6V112.7L68.4652 112.9L64.5652 106.7L63.0652 113.8L61.8652 114V113.9L62.3652 113.4Z" fill="#F9F5F2"/>
<path d="M52.8652 106.2L54.0652 106.1V106.8C54.6652 106.3 55.1652 106 56.1652 106C57.1652 106 58.1652 106.6 58.1652 108L58.0652 111.1L58.3652 111.3V111.4L57.2652 111.8H57.1652L57.2652 107.9C57.2652 106.9 56.7652 106.1 55.8652 106.1C54.9652 106.1 54.2652 106.6 54.0652 107L53.9652 110.9L54.2652 111.1V111.2L53.1652 111.6H53.0652L53.1652 106.5L52.8652 106.2Z" fill="#F9F5F2"/>
<path d="M44.3652 110.1H45.5652C45.1652 109.6 44.9652 108.9 45.1652 108.2C45.3652 106.9 46.5652 106 47.9652 106.3C48.3652 106.4 48.7652 106.6 49.0652 106.8C49.2652 106.7 49.4652 106.5 49.4652 106.4C49.5652 105.6 47.1652 105.6 46.3652 105.3C45.4652 104.9 45.4652 103.9 45.9652 103.2C46.3652 102.6 47.1652 102.3 47.8652 102.4C49.5652 102.6 50.1652 104.5 51.9652 103.9L51.7652 104.8C49.9652 105.3 49.3652 102.9 47.7652 102.6C46.9652 102.5 46.2652 103 46.2652 103.7C46.2652 105.5 50.2652 104.3 49.9652 105.9C49.8652 106.3 49.3652 106.7 48.9652 106.9C49.5652 107.4 49.7652 108.2 49.6652 109.1C49.4652 110.4 48.2652 111.3 46.8652 111C46.3652 110.9 45.9652 110.7 45.5652 110.4L43.9652 111L44.3652 110.1ZM45.9652 109.1C46.1652 110.3 46.9652 111.1 47.8652 110.8C48.6652 110.5 49.1652 109.3 48.9652 108.1C48.7652 106.9 47.9652 106.1 47.0652 106.4C46.2652 106.7 45.7652 107.9 45.9652 109.1Z" fill="#F9F5F2"/>
<path d="M41.0652 110.7C40.9652 111 40.6652 111.1 40.4652 111C40.1652 110.9 40.0652 110.6 40.1652 110.4C40.2652 110.1 40.5652 110 40.7652 110.1C40.9652 110.1 41.0652 110.4 41.0652 110.7ZM41.6652 103.9L43.1652 104.3V104.4L42.7652 104.6L41.4652 108.9L41.7652 109.2V109.3L40.5652 109.4H40.4652L42.0652 104.3L41.6652 103.9Z" fill="#F9F5F2"/>
<path d="M21.9652 101.4L27.5652 97.4L27.7652 96.6L28.4652 97.1L27.4652 101.4L30.3652 99.3L30.5652 98.5L31.2652 99L29.5652 106.6L29.8652 107.2L29.7652 107.3L28.1652 106.2L28.2652 106.1H28.8652L30.3652 99.4L27.4652 101.5L26.7652 104.6L27.0652 105.2L26.9652 105.3L25.3652 104.2L25.4652 104.1H26.0652L27.5652 97.4L21.9652 101.4L22.3652 102.2L22.2652 102.3L20.9652 101.4L21.0652 101.3L21.9652 101.4Z" fill="#F9F5F2"/>
<path d="M19.3652 98.4C19.1652 98.6 18.8652 98.6 18.6652 98.4C18.4652 98.2 18.4652 97.9 18.6652 97.7C18.8652 97.5 19.1652 97.5 19.3652 97.7C19.5652 97.9 19.5652 98.2 19.3652 98.4ZM22.8652 92.6L24.0652 93.6L23.9652 93.7H23.4652L20.3652 97L20.4652 97.4L20.3652 97.5L19.2652 97.1L19.1652 97L22.7652 93.1L22.8652 92.6Z" fill="#F9F5F2"/>
<path d="M17.4652 86.5L18.2652 87.3L18.0652 87.5C18.5652 87.7 19.0652 88 19.3652 88.4C20.7652 90 19.9652 91.7 18.9652 92.6C17.8652 93.5 16.1652 93.6 14.8652 92.1C14.5652 91.7 14.2652 91.2 14.1652 90.7L12.6652 92V92.4L12.5652 92.5L11.5652 92L11.4652 91.9L17.3652 86.9L17.4652 86.5ZM14.5652 90.5C14.4652 91.2 14.7652 91.9 15.0652 92.3C15.8652 93.3 17.3652 93.3 18.6652 91.7C19.6652 90.5 19.6652 89.1 18.8652 88.3C18.5652 88 18.2652 87.9 17.8652 87.7L14.5652 90.5Z" fill="#F9F5F2"/>
<path d="M10.7652 80.8C11.9652 80.1 13.7652 80.2 14.7652 81.8C15.7652 83.5 14.9652 85.1 13.7652 85.8C12.5652 86.5 10.7652 86.5 9.76521 84.8C8.66521 83.2 9.56521 81.6 10.7652 80.8ZM10.8652 81.8C9.86521 82.7 9.26521 84.2 10.1652 85.2C11.0652 86.2 12.5652 85.8 13.5652 84.9C14.6652 84 15.1652 82.4 14.2652 81.4C13.3652 80.5 11.8652 80.9 10.8652 81.8Z" fill="#F9F5F2"/>
<path d="M9.9652 72L10.4652 73.1H10.1652C10.5652 73.4 10.8652 73.9 11.0652 74.4C11.8652 76.4 10.5652 77.8 9.2652 78.2C7.9652 78.7 6.2652 78.3 5.5652 76.4C5.3652 76 5.3652 75.4 5.2652 74.9L3.3652 75.6L3.2652 76H3.1652L2.3652 75.2V75.1L9.5652 72.3L9.9652 72ZM5.9652 74.8C5.6652 75.4 5.6652 76.2 5.8652 76.7C6.3652 77.9 7.7652 78.4 9.4652 77.3C10.8652 76.5 11.2652 75.2 10.7652 74.1C10.5652 73.8 10.3652 73.5 9.9652 73.2L5.9652 74.8Z" fill="#F9F5F2"/>
<path d="M5.4652 64.4C6.8652 64.1 8.4652 64.8 8.8652 66.7C9.2652 68.6 8.0652 69.9 6.6652 70.1C5.2652 70.4 3.5652 69.7 3.1652 67.8C2.7652 66 4.0652 64.7 5.4652 64.4ZM5.2652 65.4C3.9652 65.9 2.9652 67.2 3.4652 68.4C3.9652 69.6 5.5652 69.8 6.7652 69.2C8.0652 68.7 9.0652 67.4 8.5652 66.2C8.0652 65 6.5652 64.8 5.2652 65.4Z" fill="#F9F5F2"/>
<path d="M3.06521 50.4C4.06521 49.1 5.76521 48.5 6.96521 48.6C7.76521 48.7 8.46521 49.1 8.36521 49.9C8.26521 50.4 7.86521 50.9 7.36521 51.3C7.96521 51.8 8.26521 52.5 8.16521 53.4C7.86521 56.1 4.06521 56.4 2.86521 53.6C1.46521 53.9 0.165214 53.3 0.265214 51.7C0.365214 51 0.465214 50.7 0.665214 50.2L1.86521 50V50.1C0.965214 50.4 0.465214 51 0.365214 51.8C0.165214 53.4 1.66521 53.2 2.76521 52.9C4.76521 52.2 7.56521 50.7 7.66521 49.7C7.66521 49.3 7.26521 49 6.76521 49C5.46521 48.9 3.46521 50 3.06521 52.1H2.96521L3.06521 50.4ZM2.86521 53.5C3.56521 55.3 7.56521 55 7.76521 52.8C7.76521 52.4 7.66521 51.8 7.16521 51.4C6.16521 52.2 4.26521 53.1 3.06521 53.5H2.86521Z" fill="#F9F5F2"/>
</svg>
