<svg width="62" height="64" viewBox="0 0 62 64" fill="none" xmlns="http://www.w3.org/2000/svg">
<path d="M27.8887 31.1977C27.8887 31.1977 22.1252 28.5603 18.43 28.2257C14.7348 27.891 9.03455 28.1785 7.55598 29.7128C6.07742 31.2472 0.799052 38.5179 1.01062 40.7071C1.22219 42.8963 2.69962 45.0963 3.33312 48.7679C3.96662 52.4395 11.9905 63.4542 16.7411 61.1455C21.4917 58.8367 19.2752 55.1663 21.5976 52.9638C23.92 50.7614 32.9981 38.2944 27.8887 31.1977Z" stroke="#5F3016" stroke-linecap="round" stroke-linejoin="round"/>
<path d="M15.7914 61.4583C15.7914 61.4583 26.7566 63.0591 28.6887 41.9043" stroke="#5F3016" stroke-linecap="round" stroke-linejoin="round"/>
<path d="M12.5986 28.2255C12.5986 28.2255 6.92265 25.0577 5.65565 23.9039C4.38865 22.7501 2.69973 20.7567 4.38865 18.135C6.07759 15.5133 7.34821 14.5685 8.13857 10.1612C8.92895 5.7538 17.7968 3.65765 21.4919 5.6499C25.1872 7.64215 29.1645 10.0561 29.7603 13.6237C30.3561 17.1914 30.2466 27.5659 30.5154 30.4558" stroke="#5F3016" stroke-linecap="round" stroke-linejoin="round"/>
<path d="M17.7968 4.89594C17.7968 4.89594 23.829 5.01675 26.2499 5.96636C28.6709 6.91597 31.5648 9.74308 31.5648 9.74308" stroke="#5F3016" stroke-linecap="round" stroke-linejoin="round"/>
<path d="M30.0654 16.8798C30.0654 16.8798 32.1557 2.92438 36.0077 1.45526C39.8598 -0.0138633 41.5475 2.30096 44.6092 2.30096C47.671 2.30096 50.4153 1.56641 52.6344 4.29443C54.8534 7.02244 58.4707 9.86885 58.7577 11.2171C59.3912 14.1542 58.8647 16.8859 58.8647 16.8859" stroke="#5F3016" stroke-linecap="round" stroke-linejoin="round"/>
<path d="M30.5177 28.4816C30.5177 28.4816 31.1598 19.6028 33.9795 14.8825C36.7993 10.1623 42.7026 6.87488 46.3018 8.92878C53.2703 12.8939 54.0326 17.2252 56.6481 19.6077C59.1821 21.9152 58.9705 27.8231 58.4428 31.9514C57.9151 36.0797 53.9439 39.5628 51.4755 38.316C46.4075 35.7607 38.4335 34.0137 33.9747 34.6782" stroke="#5F3016" stroke-linecap="round" stroke-linejoin="round"/>
<path d="M43.7676 8.3031C45.5876 8.03047 47.4477 8.24654 49.1553 8.92892C51.8997 10.0622 55.2654 13.7616 57.0734 14.9926C58.8815 16.2238 62.3519 21.3959 61.086 25.6921C60.2268 28.6101 59.1313 31.4541 57.8102 34.1963" stroke="#5F3016" stroke-linecap="round" stroke-linejoin="round"/>
<path d="M56.9155 35.7559C56.9155 35.7559 61.9434 38.6555 61.3549 42.2437C60.7664 45.832 58.0207 46.8069 55.6983 50.8809C53.3759 54.9548 48.6241 51.2831 46.8294 55.1638C45.0347 59.0444 42.2903 62.2919 39.4401 62.507C36.59 62.722 33.087 58.5201 31.5646 55.1638C30.0423 51.8076 32.0254 51.1841 30.559 49.1351C29.0926 47.086 27.4559 42.8526 30.0726 36.7382" stroke="#5F3016" stroke-linecap="round" stroke-linejoin="round"/>
<path d="M37.6978 62.1555C37.6978 62.1555 40.706 63.766 44.6468 62.5179C51.664 60.2901 49.485 58.3607 54.7755 55.054C61.3221 50.9631 61.5203 46.8384 61.355 42.2474" stroke="#5F3016" stroke-linecap="round" stroke-linejoin="round"/>
<path d="M28.2718 36.017C27.4654 38.0371 25.9346 39.689 23.9747 40.6538" stroke="#5F3016" stroke-linecap="round" stroke-linejoin="round"/>
<path d="M28.2611 34.7702C27.2106 36.4706 25.5652 37.7256 23.6405 38.2944" stroke="#5F3016" stroke-linecap="round" stroke-linejoin="round"/>
<path d="M27.4814 34.3292C26.1232 35.1787 24.6274 35.7885 23.0602 36.1318" stroke="#5F3016" stroke-linecap="round" stroke-linejoin="round"/>
<path d="M27.4778 33.1946C25.8741 34.0188 24.0568 34.341 22.2652 34.1189" stroke="#5F3016" stroke-linecap="round" stroke-linejoin="round"/>
<path d="M27.1473 32.3273C25.3518 32.6786 23.4908 32.464 21.8239 31.7135" stroke="#5F3016" stroke-linecap="round" stroke-linejoin="round"/>
<path d="M28.3486 30.5645C26.8962 29.6753 25.6474 28.4937 24.6826 27.0959" stroke="#5F3016" stroke-linecap="round" stroke-linejoin="round"/>
<path d="M28.4445 28.6762C27.7738 26.7852 27.7182 24.7325 28.2854 22.8082" stroke="#5F3016" stroke-linecap="round" stroke-linejoin="round"/>
<path d="M30.0654 30.875C30.1032 28.5711 31.4808 24.9551 32.8706 23.8834" stroke="#5F3016" stroke-linecap="round" stroke-linejoin="round"/>
<path d="M31.1136 29.5979C31.2479 28.8119 31.5496 28.0632 31.9983 27.4022C32.447 26.7411 33.0324 26.1828 33.7156 25.7644" stroke="#5F3016" stroke-linecap="round" stroke-linejoin="round"/>
<path d="M31.8979 29.9303C32.7406 28.8618 33.955 28.145 35.3025 27.9211" stroke="#5F3016" stroke-linecap="round" stroke-linejoin="round"/>
<path d="M32.0679 31.7136C33.5745 31.2484 36.0234 30.5646 36.5669 31.0309" stroke="#5F3016" stroke-linecap="round" stroke-linejoin="round"/>
<path d="M31.7909 33.1644C33.0762 33.1245 34.5875 32.9155 35.542 32.8418" stroke="#5F3016" stroke-linecap="round" stroke-linejoin="round"/>
<path d="M31.6315 33.905C32.1544 34.797 32.8657 35.5659 33.7162 36.1586C34.5668 36.7513 35.5365 37.1539 36.5586 37.3386" stroke="#5F3016" stroke-linecap="round" stroke-linejoin="round"/>
<path d="M32.0679 36C32.3653 36.7665 32.8313 37.4572 33.432 38.0216C34.0326 38.586 34.7527 39.0099 35.5395 39.262" stroke="#5F3016" stroke-linecap="round" stroke-linejoin="round"/>
<path d="M30.8946 36.3541C30.8456 37.2583 31.0539 38.158 31.4952 38.9501C31.9367 39.7424 32.5936 40.3952 33.3907 40.8339" stroke="#5F3016" stroke-linecap="round" stroke-linejoin="round"/>
<path d="M28.8385 35.7559C28.8385 37.5899 27.918 39.842 27.0304 41.2011" stroke="#5F3016" stroke-linecap="round" stroke-linejoin="round"/>
<path d="M25.6346 31.3788C25.3914 31.9031 24.9719 32.3367 24.7203 32.8599C24.4686 33.3831 24.4237 34.085 24.8553 34.4752C25.1763 34.7664 25.6772 34.8075 25.9703 35.1265C26.5685 35.7788 25.8243 36.9278 26.29 37.6793C26.5673 38.125 27.1656 38.2471 27.6921 38.2277C28.2185 38.2084 28.7571 38.0913 29.2654 38.2277C29.9694 38.4199 30.7161 39.0734 31.3095 38.653C31.5721 38.4682 31.6742 38.1311 31.8882 37.8931C32.4815 37.2371 33.7121 37.5174 34.269 36.8263C34.7019 36.2838 34.4453 35.4877 34.1267 34.8727C33.8082 34.2578 33.4324 33.5595 33.6817 32.9143C33.8629 32.4467 34.3432 32.1254 34.4611 31.6384C34.7043 30.6454 33.3667 29.9821 33.0907 28.9987C32.991 28.6447 33.0336 28.252 32.867 27.9234C32.6105 27.4172 31.9599 27.2528 31.3896 27.2637C30.8193 27.2746 30.2369 27.4015 29.6873 27.2505C29.5277 27.2075 29.3785 27.1332 29.2484 27.0318C29.0121 26.8483 28.7139 26.7618 28.4153 26.7901C28.1167 26.8185 27.8405 26.9594 27.6434 27.184C27.3856 27.4752 27.1436 27.7663 26.9479 28.002C26.07 29.0591 26.1964 30.1923 25.6346 31.3788Z" fill="#5F3016"/>
<path d="M29.032 23.4398C29.032 24.0411 28.5415 24.5285 27.9364 24.5285C27.3314 24.5285 26.8409 24.0411 26.8409 23.4398C26.8409 22.8386 27.3314 22.3513 27.9364 22.3513C28.5415 22.3513 29.032 22.8386 29.032 23.4398Z" fill="#5F3016"/>
<path d="M33.6406 24.6446C33.2175 25.0649 32.5316 25.0649 32.1085 24.6445C31.6854 24.2242 31.6854 23.5427 32.1085 23.1222C32.5316 22.7019 33.2175 22.7018 33.6406 23.1222C34.0637 23.5426 34.0637 24.2242 33.6406 24.6446Z" fill="#5F3016"/>
<path d="M34.247 26.969C34.4189 26.969 34.587 26.9184 34.73 26.8234C34.873 26.7285 34.9845 26.5936 35.0502 26.4358C35.1161 26.2779 35.1332 26.1042 35.0997 25.9367C35.0662 25.7691 34.9834 25.6151 34.8618 25.4943C34.7402 25.3735 34.5853 25.2913 34.4166 25.2579C34.248 25.2246 34.0733 25.2417 33.9144 25.3071C33.7555 25.3725 33.6197 25.4832 33.5242 25.6253C33.4286 25.7673 33.3776 25.9343 33.3776 26.1052C33.3776 26.3343 33.4692 26.554 33.6322 26.716C33.7953 26.878 34.0164 26.969 34.247 26.969Z" fill="#5F3016"/>
<path d="M36.0134 29.4613C35.3632 29.6138 34.7115 29.2136 34.558 28.5674C34.4045 27.9212 34.8072 27.2738 35.4576 27.1213C36.1079 26.9688 36.7595 27.369 36.913 28.0152C37.0664 28.6613 36.6637 29.3087 36.0134 29.4613Z" fill="#5F3016"/>
<path d="M36.8223 31.5585C36.3144 31.6776 35.8056 31.3651 35.6858 30.8605C35.5659 30.3559 35.8804 29.8503 36.3882 29.7312C36.8961 29.6121 37.4049 29.9246 37.5248 30.4292C37.6446 30.9338 37.3301 31.4393 36.8223 31.5585Z" fill="#5F3016"/>
<path d="M36.3887 33.1568C36.0197 33.5234 35.4215 33.5234 35.0526 33.1568C34.6835 32.7902 34.6836 32.1958 35.0526 31.8292C35.4215 31.4627 36.0196 31.4626 36.3887 31.8292C36.7576 32.1958 36.7576 32.7902 36.3887 33.1568Z" fill="#5F3016"/>
<path d="M38.2159 37.5212C38.2159 38.2471 37.6236 38.8356 36.893 38.8356C36.1623 38.8356 35.57 38.2471 35.57 37.5212C35.57 36.7952 36.1623 36.2067 36.893 36.2067C37.6236 36.2067 38.2159 36.7952 38.2159 37.5212Z" fill="#5F3016"/>
<path d="M36.0234 39.4361C36.0234 39.9339 35.6173 40.3374 35.1163 40.3374C34.6153 40.3374 34.2092 39.9339 34.2092 39.4361C34.2092 38.9383 34.6153 38.5348 35.1163 38.5348C35.6173 38.5348 36.0234 38.9383 36.0234 39.4361Z" fill="#5F3016"/>
<path d="M33.3296 42.5586C32.6838 42.71 32.0368 42.3127 31.8844 41.6711C31.732 41.0295 32.1319 40.3866 32.7776 40.2351C33.4234 40.0837 34.0704 40.4811 34.2228 41.1226C34.3752 41.7643 33.9753 42.4071 33.3296 42.5586Z" fill="#5F3016"/>
<path d="M27.1783 42.0858C26.6907 42.2002 26.2021 41.9002 26.0871 41.4157C25.972 40.9312 26.274 40.4459 26.7615 40.3315C27.2491 40.2172 27.7376 40.5172 27.8527 41.0016C27.9678 41.4861 27.6659 41.9715 27.1783 42.0858Z" fill="#5F3016"/>
<path d="M24.8781 40.7505C24.8781 41.5612 24.2167 42.2184 23.4008 42.2184C22.5848 42.2184 21.9235 41.5612 21.9235 40.7505C21.9235 39.9398 22.5848 39.2826 23.4008 39.2826C24.2167 39.2826 24.8781 39.9398 24.8781 40.7505Z" fill="#5F3016"/>
<path d="M24.4281 38.6915C24.2363 39.1513 23.7058 39.3697 23.2429 39.1793C22.7801 38.9887 22.5602 38.4616 22.752 38.0017C22.9437 37.5418 23.4743 37.3234 23.9371 37.5139C24.4 37.7044 24.6198 38.2316 24.4281 38.6915Z" fill="#5F3016"/>
<path d="M23.8165 36.2066C23.8165 36.7251 23.3935 37.1453 22.8718 37.1453C22.35 37.1453 21.927 36.7251 21.927 36.2066C21.927 35.6882 22.35 35.2678 22.8718 35.2678C23.3935 35.2678 23.8165 35.6882 23.8165 36.2066Z" fill="#5F3016"/>
<path d="M23.1357 34.1793C23.1357 34.7391 22.679 35.1929 22.1155 35.1929C21.5521 35.1929 21.0953 34.7391 21.0953 34.1793C21.0953 33.6195 21.5521 33.1656 22.1155 33.1656C22.679 33.1656 23.1357 33.6195 23.1357 34.1793Z" fill="#5F3016"/>
<path d="M22.8705 31.7762C22.8705 32.336 22.4137 32.7898 21.8504 32.7898C21.2869 32.7898 20.8302 32.336 20.8302 31.7762C20.8302 31.2164 21.2869 30.7625 21.8504 30.7625C22.4137 30.7625 22.8705 31.2164 22.8705 31.7762Z" fill="#5F3016"/>
<path d="M23.249 29.7853C23.4136 29.7856 23.5745 29.7374 23.7114 29.6467C23.8483 29.556 23.9551 29.427 24.0182 29.2761C24.0814 29.1251 24.098 28.9589 24.0661 28.7985C24.0341 28.6381 23.955 28.4908 23.8387 28.3751C23.7224 28.2593 23.5742 28.1805 23.4129 28.1485C23.2515 28.1165 23.0843 28.1329 22.9322 28.1954C22.7802 28.2579 22.6502 28.3638 22.5588 28.4997C22.4673 28.6357 22.4185 28.7955 22.4185 28.959C22.4185 29.178 22.5059 29.388 22.6616 29.5429C22.8173 29.6978 23.0286 29.785 23.249 29.7853Z" fill="#5F3016"/>
<path d="M26.1974 27.0813C26.1974 27.7246 25.6725 28.246 25.0251 28.246C24.3778 28.246 23.853 27.7246 23.853 27.0813C23.853 26.4381 24.3778 25.9166 25.0251 25.9166C25.6725 25.9166 26.1974 26.4381 26.1974 27.0813Z" fill="#5F3016"/>
</svg>
