<svg width="20" height="63" viewBox="0 0 20 63" fill="none" xmlns="http://www.w3.org/2000/svg">
<path fill-rule="evenodd" clip-rule="evenodd" d="M7.20848 41.2619C7.9152 37.6189 10.1767 32.2575 13.7809 28.202C14.841 27.0335 16.1131 25.7963 17.3852 25.865C17.7385 27.1022 16.6078 28.0645 16.0424 29.0956C14.205 32.5324 13.1449 37.069 9.18728 40.3683C8.05654 41.3306 7.56184 41.8118 7.34983 43.1178C6.85513 45.7297 7.4205 48.3417 7.06714 50.61C7.49117 48.1355 8.76325 44.6987 11.8728 43.049C12.1555 45.0424 10.7421 47.3107 9.11661 49.0291C8.05654 50.1288 7.34983 50.61 7.13781 51.9847C6.85513 53.2907 7.34983 54.7342 7.56184 56.3151C7.70318 57.8273 7.56184 59.477 7.84453 60.6455C7.98587 61.1954 8.69258 61.9515 8.12721 62.5014C6.85513 61.814 6.9258 60.1643 6.85513 58.9958C6.64311 56.4526 6.64311 54.1843 6.07774 51.4348C5.79506 50.1288 5.86573 48.6166 5.22968 47.6543C4.66431 46.8295 3.67491 46.2796 3.32156 45.4548C2.89753 44.63 2.75619 43.6677 2.4735 42.8428C1.4841 40.2996 -0.706712 37.6189 0.212016 34.9382C1.69612 35.0756 2.68551 36.3816 3.39223 37.5501C4.02827 38.5812 4.38163 40.0934 4.73498 41.4681C5.37103 43.8739 6.07774 45.4548 5.51237 47.5856C5.79506 48.1355 6.00707 48.7541 6.07774 49.304C6.85513 45.3861 6.07774 40.712 6.50177 36.5191C3.4629 31.0202 2.75619 25.5213 4.31096 20.0224C3.9576 18.304 3.9576 16.5169 4.16961 14.7985C4.31096 13.1488 4.4523 11.2242 5.58304 9.64326C6.99647 10.8805 7.13781 12.7364 7.49117 14.1111C7.9152 15.7608 7.9152 17.1355 7.9152 18.7852C7.9152 21.8783 6.78445 24.9714 7.13781 27.9958C7.77385 26.1399 7.56184 24.1466 8.05654 22.222C8.48057 20.2974 9.25795 18.4415 9.25795 16.5169C9.25795 15.8982 8.97527 15.2796 8.9046 14.7297C8.76325 12.6677 9.54064 10.8805 9.54064 8.88716C9.54064 7.64991 9.04594 6.34393 8.97527 5.03794C8.97527 3.73195 8.83392 2.4947 9.18728 1.25745C9.96467 1.94481 10.2474 2.56344 10.6714 3.18206C11.3781 2.56344 11.3074 1.25745 12.3675 0.432617C13.1449 2.83838 12.3675 5.38162 12.5088 7.78738C12.6502 9.43705 13.0742 10.8118 12.8622 12.324C12.7209 13.6987 12.4382 15.4171 11.5901 16.7918C11.3781 17.1355 11.0247 17.3417 10.8127 17.6854C10.2474 18.579 10.106 19.7475 9.61131 20.7785C9.11661 21.8096 8.4099 22.7719 8.62191 23.8716C9.3993 22.7719 9.75265 21.5346 10.2474 20.3661C10.7421 19.1288 11.4488 18.0978 12.0848 16.9293C12.9329 15.2796 12.7915 13.2175 14.2756 12.049C14.9117 12.4614 14.629 12.8051 14.9117 13.2175C16.1131 11.4304 18.2332 10.0557 19.9293 8.33727C20.0707 9.9182 19.0106 11.4304 18.1625 13.0113C17.2438 14.661 15.8304 15.967 14.9117 17.6854C13.9223 19.4038 13.8516 21.8096 13.2156 23.8716C12.5795 25.9337 11.7315 28.1333 10.106 29.9892C9.11661 31.0889 8.05654 32.3262 7.49117 33.4947C6.85513 35.1444 7.63251 39.4747 7.20848 41.2619ZM10.3887 5.17541C10.4594 4.69426 10.6714 4.21311 10.7421 3.73195C10.2474 3.31954 10.0353 2.83838 9.75265 2.42597C9.68198 3.2508 9.96467 4.55679 10.3887 5.17541ZM9.68198 7.58118C10.53 5.93151 9.894 3.86942 9.25795 2.4947C9.32862 4.2131 9.25795 5.93151 9.68198 7.58118ZM10.0353 14.3173C11.8728 10.2619 12.8622 5.79404 12.1555 2.01355C10.6007 6.06898 10.53 10.1931 10.0353 14.3173ZM12.2262 1.25745C9.96467 6.06898 9.18728 10.8805 9.46997 15.692C10.6714 10.8805 10.1767 6.06898 12.2262 1.25745ZM6.9258 24.6965C7.9152 20.7098 7.98587 16.7918 6.85513 12.8739C6.57244 11.9803 6.50177 10.8118 5.58304 10.1931C5.65371 11.3617 5.4417 12.6677 5.4417 13.9736C5.4417 15.0047 5.51237 16.3794 5.9364 17.0668C6.36043 16.4481 6.36043 15.2109 7.06714 15.2109C7.49117 18.304 6.99647 21.8096 6.9258 24.6965ZM5.58304 17.6167C5.22968 15.2109 5.51237 12.8051 5.30036 10.3306C4.66431 13.1488 3.88693 16.4481 4.80566 18.9914C4.947 18.579 5.22968 18.0978 5.58304 17.6167ZM10.6714 17.4104C11.3781 15.4171 11.8021 12.9426 11.5194 11.2242C10.6714 13.2863 10.9541 15.3484 10.6714 17.4104ZM11.0954 16.998C12.5088 14.1111 13.0742 11.2242 12.2968 8.33727C11.5194 11.2242 11.9435 14.1111 11.0954 16.998ZM5.01767 31.7763C5.51237 27.5147 7.06714 22.8406 6.9258 18.6477C6.9258 18.0291 6.9258 17.1355 6.57244 16.998C4.59364 21.8783 4.947 27.171 5.01767 31.7763ZM6.4311 16.8606C3.25089 21.6033 3.39223 26.7586 4.73498 31.2264C4.87633 26.4149 4.52297 21.6033 6.4311 16.8606ZM9.61131 17.8229C9.61131 17.4792 9.82332 16.7231 10.3887 17.0668C10.4594 16.1045 10.7421 15.1422 10.53 14.1111C9.96467 15.2796 9.54064 16.9293 9.61131 17.8229ZM14.2049 14.3173C14.4876 13.8362 14.629 13.355 14.3463 12.8739C14.1343 13.2863 13.8516 14.1111 14.2049 14.3173ZM14.0636 12.8051C13.4982 13.8362 13.0742 14.7985 13.0035 15.8295C13.8516 14.8672 13.9929 13.8362 14.0636 12.8051ZM9.04594 21.1222C9.61131 19.9537 10.4594 18.3727 10.2474 17.5479C9.96467 18.7852 9.11661 19.9537 9.04594 21.1222ZM19.0106 9.64326C14.9117 13.0113 11.4488 17.4792 10.318 21.3971C11.3781 20.2974 12.5088 18.7852 13.4982 17.9603C12.4382 19.4725 10.53 20.9847 9.894 22.4282C14.841 18.304 18.1625 13.5612 19.7173 9.16211C17.4558 11.7053 16.5371 14.7297 13.9929 16.998C16.0424 14.5235 17.3145 12.1178 19.0106 9.64326ZM7.77385 31.3639C7.77385 31.6388 7.34983 32.2575 7.84453 32.3949C9.18728 31.0202 8.97527 29.7142 9.25795 28.4082C9.75265 26.0712 10.4594 24.0091 11.0954 21.7408C7.84452 24.7652 7.98587 28.3395 7.77385 31.3639ZM12.7915 20.2286C11.2368 21.3284 10.6007 23.9404 10.1767 25.7275C9.82332 27.3084 9.32862 29.0269 9.75265 29.9204C12.7915 26.2087 13.2862 22.4969 14.2049 18.7164C12.6502 19.9537 12.8622 21.0535 12.5088 22.2907C11.8021 24.8339 10.8834 27.2397 9.68198 29.4393C11.0247 26.4149 12.2262 23.3218 12.7915 20.2286ZM6.50177 35.488C6.57244 32.7386 7.63251 29.508 6.14841 27.0335C5.30036 29.8517 4.87633 32.6699 6.50177 35.488ZM6.78445 44.9049C6.78445 46.8295 6.50177 48.7541 6.78445 50.61C6.9258 42.9803 6.9258 34.8694 7.70318 27.5147C6.71378 33.2885 6.78445 39.1998 6.78445 44.9049ZM2.04947 40.8495C3.03887 42.9803 3.03887 45.1111 4.4523 46.3484C2.68551 42.7741 2.82686 39.1998 0.636044 35.6943C0.565373 35.6255 0.494702 35.5568 0.353359 35.6255C-0.212012 37.2752 1.13074 38.9249 2.04947 40.8495ZM5.15901 46.967C5.79506 45.0424 4.80566 43.1178 4.31096 41.2619C3.81626 39.3373 3.18021 37.2752 1.13074 35.5568C0.989401 35.6943 0.848059 35.3506 0.706716 35.488C3.10954 39.2685 2.75619 43.1178 5.15901 46.967ZM12.2262 33.2198C10.8834 35.6255 9.46997 38.0313 8.26855 40.5058C11.8021 37.9626 13.7102 32.8761 15.477 29.5767C16.0424 28.477 16.8905 27.3772 16.9611 26.1399C14.7703 28.202 13.5689 30.814 12.2262 33.2198ZM16.0424 26.5524C11.0247 30.6078 8.62191 36.1067 7.63251 40.7807C10.8834 36.0379 12.8622 31.2951 16.0424 26.5524ZM8.33922 49.2353C10.2474 47.3794 11.4488 45.5235 11.6608 43.6677C10.2474 45.1798 9.3993 47.4481 8.33922 49.2353ZM11.2368 44.0113C9.25795 45.1111 8.19788 47.6543 7.98587 49.304C9.25795 47.5169 9.894 45.7985 11.2368 44.0113ZM7.63251 61.539C7.20848 59.477 7.63251 57.0025 6.85513 55.2841C7.13781 57.3461 6.85513 59.477 7.63251 61.539Z" fill="#602F14"/>
</svg>
